<?xml version="1.0" encoding="utf-8"?>
<!-- Generator: Adobe Illustrator 15.0.0, SVG Export Plug-In . SVG Version: 6.00 Build 0)  -->
<!DOCTYPE svg PUBLIC "-//W3C//DTD SVG 1.1//EN" "http://www.w3.org/Graphics/SVG/1.1/DTD/svg11.dtd">
<svg version="1.1" id="Layer_1" xmlns="http://www.w3.org/2000/svg" xmlns:xlink="http://www.w3.org/1999/xlink" x="0px" y="0px"
	 width="500px" height="500px" viewBox="0 0 500 500" enable-background="new 0 0 500 500" xml:space="preserve">
<g>
	<defs>
		<rect id="SVGID_1_" x="-25.318" y="-62.075" width="550.634" height="630.15"/>
	</defs>
	<clipPath id="SVGID_2_">
		<use xlink:href="#SVGID_1_"  overflow="visible"/>
	</clipPath>
	<path clip-path="url(#SVGID_2_)" fill="#B2E1EF" d="M432.156,285.817c2.248-1.758,8.438-9.237,9.918-11.79
		c1.448-2.535-8.526-15.669-8.526-15.669s2.211-24.792,0.002-24.17c-2.222,0.628-4.336,1.431-6.435,2.273
		c-4.212,1.625-8.21,3.685-12.43,4.855c-7.902,2.193-2.47-0.917-0.462-14.79c-0.175,1.202,4.005,4.375,4.005,4.375
		s1.932-11.781-4.318-24.1c-0.733-1.449-1.585-2.803-2.601-4.081c0.205,0.025,5.812,0.668,5.812,0.668l-1.771-3.538
		c0,0-4.064-7.557-12.319-10.826c-8.253-3.268-21.313-2.533-21.313-2.533s9.182,7.958,5.153,28.948
		c0.019-0.082-0.146-0.102-0.214-0.147c-1.068-0.678-2.415-4.263-2.415-4.263s-10.753,27.994-30.475,36.617
		c1.405-0.796,2.067-5.474,2.067-5.474c-8.823,4.391-17.53-0.605-31.16-5.438c-13.61-4.821,4.896,35.179,5.958,34.718
		c0.281-0.118,2.594-0.895,5.924-2.299l0.239,45.17l0.131-0.017l3.553,11.008c0,0,21.303-11.447,32.628-4.831
		c0.062-1.915-3.401-6.021-3.401-6.021s19.846,13.072,39.9,10.879c-0.66-0.536-1.331-1.257-1.993-2.046
		c1.929,0.608,3.905,1.063,5.905,1.205c4.948,0.38,14.499,0.799,18.952-0.883c4.446-1.751-11.792-5.627-8.767-9.238
		c2.237-2.67,3.969-5.138,4.402-7.501c0.363-1.999,6.654,1.116,8.477-0.452c2.464-2.115,4.18-5.091,4.922-8.159
		c0.375-1.496-11.851-3.548-12.183-5.187c-0.312-1.63-1.057-3.102-1.96-4.373C425.64,286.477,430.684,286.963,432.156,285.817"/>
	<path clip-path="url(#SVGID_2_)" fill="#ECF8FF" d="M451.353,244.657c2.462,0.606,7.099,2.671,7.099,2.671
		s-1.142-2.394-5.016-6.451c-3.875-4.067-10.038-5.233-19.883-3.997c-7.185,0.909-13.171,4.54-18.867,7.129
		c3.279-1.154,8.32-2.489,11.792-1.169c3.754,1.428,5.251,3.073,5.195,4.878c-1.099,4.053-7.926,7.008-11.523,8.531
		c1.162,0.097,2.363,0.201,3.455,0.294c-8.76,6.103-21.635,12.823-22.698,18.898c0.668,2.078,12.487,2.6,19.343,2.071
		c2.109-0.162-1.52,2.523-1.924,3.124c3.726-0.334,7.101-0.484,9.305-0.832c2.064-0.323,4.127-0.697,6.113-1.091
		c-1.872,0.628-3.598,1.297-5.229,1.99l0.05-0.035c0,0-18.685,8.059-23.129,14.224c1.136-0.322,2.268-0.55,3.311-0.723
		c-2.945,2.747-5.514,5.182-8.45,6.8c0.925,10.329,35.188,4.865,35.188,4.865c-15.165,4.179-34.852,5.461-34.852,5.461
		c-0.148,2.206,2.092,5.39,5.631,8.345c-0.757,0.178-1.551,0.334-2.363,0.445c5.656,5.962,15.892,7.106,20.426,7.317
		c0.032,0.002,0.068,0.002,0.105,0.002c1.331,0.062,2.169,0.042,2.169,0.042l-0.039-0.023c2.015-0.064,4.008-0.395,5.91-1.114
		c5.159-1.961,7.744-5.385,8.958-8.896c0.467,0.891,0.939,1.871,1.344,2.901c1.785-5.903-0.237-12.727-1.06-15.089
		c2.649-1.823,4.532-3.895,5.887-5.953c0.279,1.111,0.541,2.352,0.7,3.637c3.038-4.992,2.969-11.613,2.78-14.425
		c1.467,2.057,2.88,5.114,2.88,5.114c0.98-10.141-4.524-18.562-4.524-18.562s5.412-7.175,6.657-14.988
		c0.723,0.794,1.472,1.692,2.161,2.66c0.227-4.44-1.588-8.862-3.127-11.771C453.927,247.827,452.17,245.589,451.353,244.657"/>
	<path clip-path="url(#SVGID_2_)" fill="#B2E1EF" d="M427.63,277.113c0,0,15.791-2.141,19.772-4.94
		c-2.089,3.609-6.273,6.29-6.273,6.29l-0.104-2.854c-11.604,5.464-11.627,3.931-16.283,6.321
		C428.019,278.112,427.63,277.113,427.63,277.113"/>
	<path clip-path="url(#SVGID_2_)" fill="#B2E1EF" d="M420.442,304.536c0,0,16.912-0.608,21.235-2.844
		c-2.554,3.295-10.934,5.266-15.87,7.01C429.574,305.355,420.442,304.536,420.442,304.536"/>
	<path clip-path="url(#SVGID_2_)" fill="#4E4D50" d="M399.779,84.17c0,0,10.361,2.471,20.735,0
		c10.371-2.465,20.244-9.878,20.244-9.878s-4.943,17.287-18.272,30.618c-13.325,13.329-30.119,11.847-40.492,10.37
		C381.994,115.279,394.349,91.578,399.779,84.17"/>
	<path clip-path="url(#SVGID_2_)" fill="#737F84" d="M399.779,84.17c0,0,10.361,2.471,20.735,0
		c10.371-2.465,20.244-9.878,20.244-9.878s-10.509,20.691-47.397,25.341L399.779,84.17z"/>
	<path clip-path="url(#SVGID_2_)" fill="#64C2DE" d="M327.258,236.139c0,0,19.017,20.2,20.402,66.163
		c1.323,43.774-20.079,68.464-25.509,74.393l-11.354-9.876l17.283-38.513L327.258,236.139z"/>
	<path clip-path="url(#SVGID_2_)" fill="#EAF6FB" d="M425.823,347.669c-7.407,8.391-21.229,13.329-21.229,13.329
		c3.455-5.437,3.946-14.318,3.946-14.318s-7.898,4.941-29.626,14.813c-21.727,9.875-37.032,25.67-37.032,25.67
		c-11.358-12.34-27.15-21.23-27.15-21.23s29.625-29.128,31.601-67.642c1.975-38.514-18.762-62.213-18.762-62.213
		c45.423-114.548,85.79-167.001,85.79-167.001c4.014-4.171,10.047-11.72,10.047-11.72c-3.441-0.91-6.856-1.89-10.242-2.899
		c-2.913-0.905-5.829-1.922-8.586-3.063c0.284-1.012,0.652-2.08,1.064-3.123c0.596-1.453,1.22-2.912,1.877-4.362
		c1.322-2.891,2.731-5.778,4.191-8.606l1.174-2.277l-2.571-0.45c-10.124-1.77-20.386-1.615-30.459-0.573v-6.206
		c-10.79,0.166-19.376,2.843-25.851,6.001c0.23-0.51,0.451-1.023,0.695-1.528c1.768-3.699,3.816-7.403,5.991-10.811l3.247-5.092
		l-6.027,0.494c-12.403,1.016-24.691,3.3-36.63,6.745c-5.971,1.716-11.861,3.698-17.664,5.927
		c-4.012,1.566-7.938,3.204-11.853,5.043c0.298-1.898,0.729-3.847,1.198-5.746c0.953-3.792,2.133-7.66,3.448-11.317l1.883-5.234
		l-5.459,0.779c-17.327,2.472-34.274,8.348-49.214,17.554c-1.441-5.209-2.187-10.831-0.778-15.342
		c-9.685,3.872-25.496,9.173-27.168,31.794c-0.193,2.571-0.27,4.998-0.292,7.312c-0.78,0.886-1.531,1.802-2.28,2.703
		c-6.67-8.792-10.835-21.742-10.835-21.742l-6.697,31.835l-0.188,0.742l-8.875-11.355l-2.653-3.401l-1.339,4.011
		c-1.809,5.447-3.237,10.874-4.396,16.438c-0.828,4.125-1.493,8.307-1.757,12.562l-6.508-7.358l-1.67-1.892l-0.765,2.329
		c-2.884,8.802-5.396,17.672-7.456,26.675c-1.008,4.505-1.928,9.038-2.514,13.619c-0.567,4.566-0.965,9.22-0.41,13.799
		c-0.265-4.6,0.425-9.167,1.266-13.662c0.88-4.5,1.942-8.957,3.171-13.373c2.231-8.012,4.886-15.922,7.78-23.697l7.396,9.135
		l2.954,3.663l0.11-4.782c0.117-5.382,1.091-10.808,2.35-16.144c0.944-3.91,2.126-7.793,3.397-11.614l8.365,11.259l-4.123,16.498
		c0,0,3.026-1.613,7.189-4.084l-79.172,164.376c-9.378,64.679,4.936,86.895,4.936,86.895c3.454-10.857,9.385-16.289,9.385-16.289
		s4.442,26.66,20.738,54.804c16.288,28.148,42.46,47.404,42.46,47.404c-3.458-8.889-2.467-17.776-2.467-17.776
		c11.846,18.761,57.279,39.004,69.609,45.428c12.351,6.413,21.731,13.821,21.731,13.821c0.489-10.372-5.924-20.245-5.924-20.245
		s16.784,13.332,26.163,20.245c9.386,6.913,12.349,10.861,24.689,10.861h41.48c4.433-5.432,13.33-23.203,18.763-34.069
		c5.42-10.86,11.843-22.217,11.843-22.217c-7.898,3.454-16.786,8.889-16.786,8.889c2.962-8.889,14.816-26.667,26.173-42.465
		C421.87,368.403,425.823,347.669,425.823,347.669"/>
	<path clip-path="url(#SVGID_2_)" fill="#64C2DE" d="M208.362,438.514c0,0,11.03,0.826,20.904-5.595l-83.44-72.086
		c0,0-10.861,17.28-18.268,26.661c-3.387,3.777-7.646,6.702-12.383,7.959c-4.739,1.28-9.734,1.026-14.636,0.346l-3.961-0.546
		l2.71,3.227c2.314,2.76,4.335,6.098,5.545,9.521c0.602,1.719,1.008,3.487,1.192,5.245l0.364,5.757l0.53,11.758l0.293,5.938
		c0.16,2.05,0.24,3.891,0.737,6.308l4.291,0.987l1.186-0.53c0.412-0.855,0.98-1.882,1.543-2.786
		c0.574-0.921,1.198-1.805,1.855-2.629c0.297-0.373,0.603-0.732,0.908-1.078c0.324,1.523,0.623,3.06,0.897,4.577
		c0.273,1.555,0.512,3.112,0.709,4.669l0.155,1.239l0.229,1.355c0.156,0.874,0.34,1.735,0.548,2.582
		c0.846,3.399,2.013,6.651,3.464,9.807c1.507,3.151,3.091,6.212,5.903,9.128l2.055,2.135l2.39-1.884
		c0.234-0.185,0.646-0.481,0.999-0.715c0.373-0.242,0.742-0.468,1.124-0.683c0.015-0.01,0.033-0.016,0.059-0.025
		c0.883,1.276,1.804,2.536,2.928,3.868c1.896,2.188,4.521,4.087,7.505,4.916c1.472,0.432,2.977,0.626,4.425,0.643l3.692-0.037
		l7.246-0.108c9.663-0.12,19.325-0.298,28.982-0.572c9.665-0.212,19.327-0.574,28.989-0.967c9.657-0.501,19.327-0.821,28.989-1.516
		C249.019,475.382,243.91,452.013,208.362,438.514"/>
	<path clip-path="url(#SVGID_2_)" fill="#ECF8FF" d="M270.919,35.97c0,0,26.468-15.921,41.309-19.039
		c-1.72,13.451-0.211,27.866-0.211,27.866L270.919,35.97z"/>
	<path clip-path="url(#SVGID_2_)" fill="#D5EEF7" d="M425.449,347.669c-5.422,17.122-27.481,34.228-27.481,34.228
		c0.659-4.28,0.845-10.633,0.845-10.633c-2.352,2.093-4.652,4.135-6.769,6.024c-8.921,7.927-20.086,21.067-20.086,21.067
		c-0.99-3.948-0.99-12.833-0.99-12.833c-9.865,6.415-26.162,24.191-26.162,24.191s-14.318-11.358-21.726-19.26
		c-13.828-11.354-36.536-21.228-60.24-30.613c-23.389-9.264-44.439-21.72-44.439-21.72c-0.489,5.925,0,14.806,0,14.806
		c-22.217-23.198-28.64-60.727-28.64-60.727c-3.454,4.942-6.906,13.823-6.906,13.823c-8.396-18.265-10.862-57.107-10.862-57.107
		s-0.155-34.369,4.035-54.746c6.421-25.414,34.783-58.134,41.093-65.987c16.06-14.851,35.411-20.02,35.411-20.02l-16.015-2.065
		c19.815-20.966,40.157-38.748,45.335-43.205c0.816-0.703-22.201-2.335-22.201-2.335c4.333-13.263,7.315-18.84,14.662-28.897
		C282.271,20.774,297.9,10.28,297.9,10.28c-0.206,0.021-0.404,0.055-0.61,0.08l0.146-0.08c-1.702,0.242-3.397,0.489-5.093,0.741
		c-0.254,0.039-0.513,0.07-0.769,0.111c-15.27,2.291-34.704,9.317-47.953,17.481c-1.441-5.209-2.187-10.831-0.778-15.342
		c-9.685,3.872-25.496,9.173-27.172,31.794c-0.192,2.571-0.271,4.998-0.288,7.312c-0.779,0.886-1.524,1.802-2.285,2.703
		c-6.667-8.792-10.83-21.742-10.83-21.742l-6.701,31.835l-0.18,0.742l-8.88-11.355l-2.652-3.401l-1.333,4.011
		c-1.816,5.447-3.248,10.874-4.403,16.438c-0.828,4.125-1.498,8.307-1.757,12.562l-6.511-7.358l-1.667-1.892l-0.764,2.329
		c-2.885,8.802-5.397,17.672-7.456,26.675c-1.009,4.505-1.933,9.038-2.515,13.619c-0.119,0.947-0.221,1.899-0.316,2.85
		c-0.226,1.314-0.456,2.631-0.652,3.973c-4.027-2.28-6.715-6.146-8.418-10.236c-1.668-4.112-2.508-8.648-2.596-12.981l-0.183-9.239
		l-2.337,9.01c-3.906,15.053-5.939,30.576-6.778,46.115c-0.44,7.773-0.475,15.568-0.258,23.355
		c0.103,3.345,0.252,6.676,0.463,10.005c-2.066-3.666-4.038-7.44-5.948-11.178l-4.708-9.229l-1.576,10.193
		c-0.879,5.678-1.123,11.295-1.129,16.878c0.007,5.58,0.257,11.125,0.697,16.635c0.39,4.658,0.907,9.294,1.489,13.918
		c-1.449-3.553-17.537,56.012-16.882,70.552c0.356,8.356,1.281,16.719,3,24.981c0.854,4.123,1.883,8.231,3.155,12.289
		c1.321,4.105,2.666,7.971,4.842,12.14l3.626,6.938l2.638-7.65c0.961-2.775,2.181-5.447,3.655-7.941
		c0.092-0.153,0.201-0.286,0.292-0.438c1.728,7.55,3.975,14.827,6.661,22.067c3.672,9.819,8.087,19.347,13.424,28.489
		c5.477,9.113,11.978,17.477,19.055,25.244c7.161,7.773,31.554,23,31.554,23s-1.088-8.543-1.278-9.136
		c3.514,2.974,7.165,5.645,10.909,8.107c7.855,5.163,15.974,9.658,24.177,13.904c8.171,4.267,16.597,8.113,24.779,11.955
		c7.978,3.807,15.734,8.556,22.911,13.656l5.178,3.679l0.109-6.094c0.077-4.063-0.731-7.946-1.963-11.564
		c-0.047-0.141-0.121-0.272-0.173-0.414c5.312,3.858,10.648,7.689,16.056,11.441c4.284,2.752,8.176,5.875,12.742,8.476
		c4.624,2.614,9.996,3.085,15.004,2.771h41.48c4.44-5.432,13.333-23.203,18.761-34.069c5.435-10.86,11.852-22.217,11.852-22.217
		c-7.897,3.454-16.792,8.889-16.792,8.889c2.964-8.889,14.815-26.667,26.167-42.465
		C421.497,368.403,425.449,347.669,425.449,347.669"/>
	<path clip-path="url(#SVGID_2_)" fill="#D5EEF7" d="M240.291,260.764c0,0,0.664,10.535,5.603,19.748c0,0,3.945-4.933,6.587-7.566
		c0,0,2.788,11.105,7.236,15.801c0,0,4.93-5.925,8.229-12.511c0,0,3.292,7.9,6.91,11.192c0,0,4.287-6.584,6.581-14.152
		c0,0,7.574-3.622,11.197-6.253C292.635,267.022,267.946,269.982,240.291,260.764"/>
	<path clip-path="url(#SVGID_2_)" fill="#4E4D50" d="M223.171,220.938c0,0,11.526,0.659,28.312,0.33
		c16.786-0.33,50.041-1.98,58.267,4.279c0,0-9.221,7.235-12.179,9.211c-1.979,0.988-0.659,4.945,0.324,7.244
		c0.989,2.303,4.607,7.571,5.269,10.205c0,0-16.455,0.985-29.626,0C260.375,251.215,225.149,242.66,223.171,220.938"/>
	<path clip-path="url(#SVGID_2_)" fill="none" stroke="#4E4D50" stroke-width="1.787" stroke-miterlimit="10" d="M223.171,220.938
		c0,0,11.526,0.659,28.312,0.33c16.786-0.33,50.041-1.98,58.267,4.279c0,0-9.221,7.235-12.179,9.211
		c-1.979,0.988-0.659,4.945,0.324,7.244c0.989,2.303,4.607,7.571,5.269,10.205c0,0-16.455,0.985-29.626,0
		C260.375,251.215,225.149,242.66,223.171,220.938z"/>
	<path clip-path="url(#SVGID_2_)" fill="#64C2DE" d="M285.121,350.034c0,0,10.585,4.281,29.67,15.958c0,0,4.658-3.94,10.336-11.745
		c6.195-7.279,11.14-19.048,11.14-19.048s-8.926,12.692-25.144,16.479C295.387,355.343,285.121,350.034,285.121,350.034"/>
	<path clip-path="url(#SVGID_2_)" fill="#64C2DE" d="M369.457,476.024c4.597-5.62,13.797-24.012,19.412-35.252
		c5.62-11.24,12.263-22.994,12.263-22.994c-8.173,3.578-17.375,9.202-17.375,9.202c3.068-9.202,15.33-27.589,27.08-43.94
		c11.748-16.35,15.839-37.806,15.839-37.806c-5.614,17.716-28.442,35.417-28.442,35.417c0.684-4.426,0.882-11.002,0.882-11.002
		c-2.438,2.167-4.815,4.28-7.009,6.233c-9.232,8.204-20.781,21.802-20.781,21.802c-1.023-4.087-1.023-13.282-1.023-13.282
		s-20.273,17.538-24.893,25.049c-4.626,7.509-17.346,35.249-17.346,35.249l-0.571-20.227c0,0-6.934,37.558-12.134,39.726
		c-5.203,2.166-7.514,3.615-14.45-1.153c0,0,10.113,9.329,17.482,11.702c4.473,1.442,14.735,1.155,27.157,1.155
		C357.966,475.903,369.457,476.024,369.457,476.024"/>
	<path clip-path="url(#SVGID_2_)" fill="#D5EEF7" d="M237.61,164.458c0,0,1.285-6.647,9.893-8.403
		c8.803-1.819,13.501,4.831,13.501,4.831s-6.322-1.939-12.632-0.789C242.43,161.18,237.646,164.439,237.61,164.458"/>
	<path clip-path="url(#SVGID_2_)" fill="#D5EEF7" d="M236.085,157.335c0,0,0.986-8.171,8.682-11.255
		c11.581-4.644,17.182,5.719,17.182,5.719s-7.653-3.223-14.177-1.86C240.612,151.425,236.085,157.335,236.085,157.335"/>
	<path clip-path="url(#SVGID_2_)" fill="#CDECF5" d="M340.48,180.533c-0.053-0.057-3.681-8.53-15.805-9.661
		c0,0,4.314-4.43,10.557-1.191C340.682,172.492,340.48,180.533,340.48,180.533"/>
	<path clip-path="url(#SVGID_2_)" fill="#D5EEF7" d="M345.556,170.566c0,0-1.19-3.298-6.334-6.196
		c-2.999-1.691-7.508-3.03-11.098-2.634c0,0,5.623-5.332,12.853-0.88C346.375,164.17,345.556,170.566,345.556,170.566"/>
	<path clip-path="url(#SVGID_2_)" fill="#737F84" d="M311.226,186.418c-4.245,9.667-2.947,23.748,4.895,23.87
		c9.526,0.152,12.858-12.976,11.824-22.896L311.226,186.418z"/>
	<path clip-path="url(#SVGID_2_)" fill="#737F84" d="M240.318,176.539c-5.323,11.953-3.799,23.293,3.96,24.549
		c8.886,1.433,14.444-11.332,14.455-21.306L240.318,176.539z"/>
	<path clip-path="url(#SVGID_2_)" fill="#FFFFFF" d="M238.672,184.332c0.079-7.539,4.271-13.121,10.235-14.388
		c5.973-1.263,10.432,6.5,9.834,12.719c-0.582,6.206-5.47,14.384-12.499,13.765C239.24,195.805,238.652,186.973,238.672,184.332"/>
	<path clip-path="url(#SVGID_2_)" fill="#161616" d="M241.763,185.325c0.024-2.589,1.461-4.496,3.51-4.937
		c2.046-0.431,3.573,2.232,3.374,4.359c-0.202,2.128-1.878,4.943-4.298,4.724C241.956,189.264,241.753,186.23,241.763,185.325"/>
	<path clip-path="url(#SVGID_2_)" fill="#FFFFFF" d="M309.727,195.228c-0.354-7.53,3.415-14.467,9.31-16.065
		c5.879-1.602,9.263,5.657,9.036,11.893c-0.24,6.231-5.715,15.017-11.796,14.06C311.074,204.304,309.848,197.873,309.727,195.228"/>
	<path clip-path="url(#SVGID_2_)" fill="#161616" d="M312.252,194.436c-0.12-2.723,1.239-5.233,3.365-5.811
		c2.127-0.572,3.354,2.046,3.271,4.303c-0.087,2.251-2.071,5.428-4.259,5.081C312.748,197.719,312.302,195.385,312.252,194.436"/>
	<path clip-path="url(#SVGID_2_)" fill="#4E4D50" d="M350.675,188.021c-1.812-0.559-10.469-3.206-24.289-5.159
		c-13.823-1.956-24.292-0.84-30.294-0.419c-6.007,0.419-5.864,0.277-12.427-1.26c-6.559-1.535-22.614-6.283-43.283-9.634
		c-20.658-3.344-34.478-2.232-34.478-2.232s-19.692-21.083-23.599-24.431c-0.842,8.657-3.081,13.398-3.081,13.398
		s23.771,20.99,24.885,21.685c1.117,0.697,1.537,0.695,3.634,2.369c2.087,1.68,2.236,4.326,2.373,9.352
		c0.143,5.032-0.286,8.66,3.63,10.475c3.906,1.81,13.824,4.33,24.986,6.143c11.174,1.813,25.136,0.836,29.181-0.837
		c4.051-1.681,7.539-7.539,9.493-10.47c1.959-2.933,3.771-6.565,5.027-7.684c1.255-1.111,4.469-0.833,7.263-0.28
		c2.79,0.559,2.096,1.817,2.338,3.458c0.202,1.25-1.386,13.68,2.663,16.891c4.05,3.209,9.352,4.89,24.146,5.862
		c14.806,0.976,18.009-1.531,19.834-4.187c2.049-3.011,4.459-8.097,5.161-9.631c0.694-1.542,1.394-2.516,2.929-3.073
		c1.533-0.555,2.655-1.116,3.07-2.376c0.417-1.254,0.982-2.789,1.537-4.463C351.934,189.838,352.494,188.583,350.675,188.021
		 M277.688,188.762c-0.841,1.964-4.886,11.172-8.374,14.248c-3.496,3.067-4.89,3.766-12.568,3.907
		c-7.676,0.142-23.174-1.398-31.416-3.764c-8.239-2.375-11.862-3.35-12.282-6.566c-0.419-3.216,0.975-16.612,1.537-19.264
		c0.559-2.656,3.48-3.769,5.021-3.911c3.481-0.321,19.688,0.562,26.806,1.674c7.118,1.115,25.275,5.442,29.18,7.539
		C279.5,184.716,278.524,186.81,277.688,188.762 M344.976,191.557c-0.555,2.656-6.701,17.309-8.513,18.847
		c-1.817,1.535-7.119,3.214-16.471,2.794c-9.357-0.416-18.155-2.095-20.805-3.492c-2.649-1.396-3.349-2.234-3.631-7.819
		c-0.276-5.583,0.282-9.352,1.253-12.279c0.981-2.937,5.308-4.754,14.94-4.612c3.493,0.054,15.636,0.136,23.593,1.538
		C343.297,187.928,345.541,188.905,344.976,191.557"/>
	<path clip-path="url(#SVGID_2_)" fill="none" stroke="#4E4D50" stroke-width="1.787" stroke-miterlimit="10" d="M350.675,188.021
		c-1.812-0.559-10.469-3.206-24.289-5.159c-13.823-1.956-24.292-0.84-30.294-0.419c-6.007,0.419-5.864,0.277-12.427-1.26
		c-6.559-1.535-22.614-6.283-43.283-9.634c-20.658-3.344-34.478-2.232-34.478-2.232s-19.692-21.083-23.599-24.431
		c-0.842,8.657-3.081,13.398-3.081,13.398s23.771,20.99,24.885,21.685c1.117,0.697,1.537,0.695,3.634,2.369
		c2.087,1.68,2.236,4.326,2.373,9.352c0.143,5.032-0.286,8.66,3.63,10.475c3.906,1.81,13.824,4.33,24.986,6.143
		c11.174,1.813,25.136,0.836,29.181-0.837c4.051-1.681,7.539-7.539,9.493-10.47c1.959-2.933,3.771-6.565,5.027-7.684
		c1.255-1.111,4.469-0.833,7.263-0.28c2.79,0.559,2.096,1.817,2.338,3.458c0.202,1.25-1.386,13.68,2.663,16.891
		c4.05,3.209,9.352,4.89,24.146,5.862c14.806,0.976,18.009-1.531,19.834-4.187c2.049-3.011,4.459-8.097,5.161-9.631
		c0.694-1.542,1.394-2.516,2.929-3.073c1.533-0.555,2.655-1.116,3.07-2.376c0.417-1.254,0.982-2.789,1.537-4.463
		C351.934,189.838,352.494,188.583,350.675,188.021z M277.688,188.762c-0.841,1.964-4.886,11.172-8.374,14.248
		c-3.496,3.067-4.89,3.766-12.568,3.907c-7.676,0.142-23.174-1.398-31.416-3.764c-8.239-2.375-11.862-3.35-12.282-6.566
		c-0.419-3.216,0.975-16.612,1.537-19.264c0.559-2.656,3.48-3.769,5.021-3.911c3.481-0.321,19.688,0.562,26.806,1.674
		c7.118,1.115,25.275,5.442,29.18,7.539C279.5,184.716,278.524,186.81,277.688,188.762z M344.976,191.557
		c-0.555,2.656-6.701,17.309-8.513,18.847c-1.817,1.535-7.119,3.214-16.471,2.794c-9.357-0.416-18.155-2.095-20.805-3.492
		c-2.649-1.396-3.349-2.234-3.631-7.819c-0.276-5.583,0.282-9.352,1.253-12.279c0.981-2.937,5.308-4.754,14.94-4.612
		c3.493,0.054,15.636,0.136,23.593,1.538C343.297,187.928,345.541,188.905,344.976,191.557z"/>
	<path clip-path="url(#SVGID_2_)" fill="#4E4D50" d="M250.742,62.69c-0.904-0.576-3.701-2.551-3.701-2.551
		c-26.165-16.787-28.142-46.908-28.142-46.908S206.06,27.06,207.048,48.289c0.991,21.231,19.26,37.03,19.26,37.03
		c-7.409,4.695-13.578,6.666-13.578,6.666s17.011,0.359,28.633-11.852C249.507,71.579,251.301,63.048,250.742,62.69"/>
	<path clip-path="url(#SVGID_2_)" fill="#737F84" d="M250.742,62.69c-0.86-0.566-3.701-2.551-3.701-2.551
		c-26.165-16.787-28.142-46.908-28.142-46.908s-15.077,38.577,24.804,64.239C243.704,77.471,249.283,72.169,250.742,62.69"/>
	<path clip-path="url(#SVGID_2_)" fill="#D5EEF7" d="M130.408,184.914c0,0-32.632,4.579-51.086,21.14
		c12.855,2.367,47.792,22.604,47.792,22.604L130.408,184.914z"/>
	<path clip-path="url(#SVGID_2_)" fill="#B2E1EF" d="M170.799,407.281c1.078,1.269,7.633,5.371,9.595,6.915
		c1.013-3.298,2.179-16.741,1.552-21.006c-1.506-10.26-3.554-15.716-12.304-24.184c-5.443-5.267-17.04-9.487-19.927-19.267
		c1.691,0.948,6.232,2.879,12.26,1.551c-3.588-3.203-15.631-24.251-14.591-36.048c1.186,3.438,5.188,6.785,6.092,6.949
		c-1.587-14.072,3.858-41.19,9.194-58.859l-33.499-3.275l-0.081-19.411l-11.499-23.64c0,0,8.126,166.644,7.575,165.789
		C128.813,384.387,158.353,400.127,170.799,407.281 M152.826,406.979c0.275-0.938,0.616-1.782,1.016-2.526L152.826,406.979z"/>
	<path clip-path="url(#SVGID_2_)" fill="#D5EEF7" d="M173.844,430.023c-1.896-6.707-2.012-17.621-2.341-22.464
		c-0.087-1.312-1.189-16.426-2.523-20.38c-2.712-8.048-6.27-11.675-14.003-20.741c-10.473-12.274-17.927-31.601-14.678-68.481
		c1.15,3.324,5.021,6.562,5.893,6.723c1.611-15.285,8.974-25.915,17.353-43.122l-30.327-26.041l-0.078-18.776l-3.076-21.947
		c0,0-22.854,1.84-42.157,19.762c-16.912,15.727-21.864,31.206-21.864,31.206s7.577-4.54,14.205-5.182c0,0-0.079,0.064-0.21,0.183
		c-19.686,16.073-29.767,70.812-20.635,114.601c3.452-4.423,6.531-15.217,6.531-15.217c2.431,12.279,2.982,31.434,2.708,44.677
		c2.349-2.171,5.763-4.882,5.875-6.159c2.965,3.544,5.062,25.381,3.809,32.339c-0.674,3.728-0.535,7.778,0.369,11.912
		c2.757,18.179,18.466,38.834,25.693,40.102c-0.333-0.682-0.619-1.367-0.87-2.035c4.255,1.245,9.717,4.58,11.437,3.367
		c0,0-4.333-7.396-8.512-16.464c2.108,7.551,9.868,14.95,31.152,19.793c0.037-3.954-4.432-15.32-8.456-24.729
		c4.935,6.911,9.458,9.217,11.373,10.596c-0.014-0.663-1.596-4.505,0.045-3.356c5.333,3.73,15.269,9.048,16.891,7.757
		c2.625-20.189-20.572-46.008-13.959-52.284c6.61-6.274-1.136,12.664,14.384,18.05c-0.128,0.041-3.727,1.256-3.727,1.256
		S158.303,428.938,173.844,430.023 M143.733,404.735c0.268-0.906,0.597-1.724,0.985-2.446L143.733,404.735z"/>
	<path clip-path="url(#SVGID_2_)" fill="#B2E1EF" d="M132.645,451.438c-1.624-4.222-6.524-17.095-6.607-17.304
		c-0.038-0.125-0.08-0.24-0.122-0.369c-0.489,2.027-0.76,3.875-0.76,3.875c0.418,0.507-5.585-8.722-5.862-19.573
		c-1.885,2.512-0.695,10.35,0.767,17.334c0.541-1.434,1.368-3.732,1.368-3.732C121.585,437.132,129.569,448.112,132.645,451.438
		 M126.705,436.05c-0.206-0.589-0.427-1.223-0.662-1.912C126.059,434.183,126.375,435.018,126.705,436.05"/>
	<path clip-path="url(#SVGID_2_)" fill="#B2E1EF" d="M106.441,447.884c0,0-1.635-4.161-1.916-6.479
		c-1.218,1.9-1.24,3.077-1.24,3.077s-4.334-14.731-3.43-17.652c-1.272,1.591-1.396,10.548,1.826,18.421
		c1.053,2.58,5.213,7.873,7.889,9.101C108.358,451.84,106.441,447.884,106.441,447.884"/>
</g>
</svg>
