<?xml version="1.0" encoding="UTF-8"?>
<!-- Generator: Adobe Illustrator 17.0.1, SVG Export Plug-In . SVG Version: 6.00 Build 0)  -->
<!DOCTYPE svg PUBLIC "-//W3C//DTD SVG 1.1//EN" "http://www.w3.org/Graphics/SVG/1.1/DTD/svg11.dtd">
<svg version="1.1" id="Layer_1" xmlns="http://www.w3.org/2000/svg" xmlns:xlink="http://www.w3.org/1999/xlink" x="0px" y="0px" width="238px" height="99.5px" viewBox="0 0 238 99.5" enable-background="new 0 0 238 99.5" xml:space="preserve">
<g>
	<g>
		<rect x="139.584" y="28.189999" fill="#05ABD6" width="3.334" height="2.82"/>
		<rect x="148.207001" y="17.618999" fill="#05ABD6" width="4.237" height="4.237"/>
		<rect x="161.281006" y="9.829002" fill="#05ABD6" width="5.876007" height="5.860001"/>
		<rect x="178.529007" y="7.882998" fill="#05ABD6" width="5.953995" height="6.225"/>
		<rect x="196.330994" y="10.664999" fill="#05ABD6" width="8.138" height="7.577001"/>
		<rect x="211.910004" y="19.288998" fill="#05ABD6" width="9.296005" height="9.578001"/>
		<rect x="219.697006" y="34.588001" fill="#05ABD6" width="11.259003" height="11.258999"/>
		<rect x="221.468994" y="51.595001" fill="#1C437D" width="14.373001" height="3.299"/>
		<rect x="221.436005" y="63.183998" fill="#05ABD6" width="14.304001" height="2.549004"/>
		<rect x="221.537994" y="60.299" fill="#1C437D" width="14.235992" height="1.011002"/>
		<rect x="221.537994" y="56.584999" fill="#05ABD6" width="14.201996" height="1.792999"/>
	</g>
</g>
<g>
	<path fill="#05ABD6" d="M11.249,35.632999H22.93v4.625H11.249v14.23c0,1.542,0.118,2.817001,0.356,3.825001   c0.237,1.007999,0.593,1.799,1.067,2.372002s1.067,0.978001,1.779,1.216c0.711,0.237,1.542,0.355,2.49,0.355   c1.66,0,2.993999-0.187,4.003-0.563c1.007999-0.375,1.709-0.641998,2.105-0.800999L24.115999,65.458   c-0.554001,0.277-1.521999,0.622002-2.905001,1.037003c-1.384001,0.416-2.965,0.623001-4.743,0.623001   c-2.096,0-3.825-0.266998-5.188-0.801003c-1.364-0.532997-2.461-1.334-3.291-2.401001s-1.414-2.381001-1.749-3.943001   c-0.336-1.561001-0.504-3.369999-0.504-5.424999V27.035999L11.249998,26.087v9.546H11.249z"/>
	<path fill="#05ABD6" d="M36.271,34.862999c2.213001,0,4.081001,0.287998,5.603001,0.860001   c1.521,0.573002,2.747002,1.384998,3.675999,2.431c0.928001,1.048,1.591,2.292999,1.986,3.736s0.592999,3.034,0.592999,4.772999   v19.271c-0.473999,0.080002-1.137001,0.188004-1.986,0.325996c-0.851002,0.139-1.808998,0.266998-2.875999,0.385002   c-1.067001,0.117996-2.223,0.226997-3.469002,0.325996c-1.244999,0.098-2.480999,0.148003-3.706001,0.148003   c-1.740002,0-3.341-0.178001-4.802999-0.533997c-1.462999-0.355003-2.726999-0.918999-3.795-1.690002   c-1.066999-0.771004-1.896999-1.787998-2.49-3.054001c-0.593-1.264999-0.889-2.786999-0.889-4.564999   c0-1.699001,0.344999-3.161999,1.038-4.388c0.691-1.224998,1.631001-2.213001,2.816-2.965c1.186001-0.75,2.569-1.304001,4.15-1.66   c1.580002-0.355,3.241001-0.533001,4.980999-0.533001c0.553001,0,1.126999,0.028999,1.720001,0.089001   c0.592999,0.058998,1.155998,0.139,1.689999,0.237c0.534,0.098999,0.998001,0.188,1.394001,0.266998   c0.395,0.080002,0.672001,0.139,0.830002,0.178001v-1.542c0-0.909-0.098999-1.807999-0.296001-2.698002   c-0.198002-0.889-0.554001-1.68-1.067001-2.372002c-0.514-0.691002-1.216-1.244999-2.105-1.66   s-2.046001-0.622002-3.469002-0.622002c-1.819,0-3.409,0.127998-4.772999,0.384998   c-1.364,0.257999-2.382,0.525002-3.054001,0.800999l-0.652-4.565998c0.711-0.316002,1.896999-0.622002,3.558001-0.918999   C32.535,35.011002,34.334,34.862999,36.271,34.862999z M36.744999,62.493999c1.304001,0,2.460999-0.029999,3.469002-0.089001   c1.007999-0.060001,1.847-0.167999,2.52-0.327V52.888c-0.396-0.196999-1.037998-0.365002-1.927002-0.504002   c-0.889-0.138-1.966999-0.207001-3.230999-0.207001c-0.830002,0-1.709999,0.060001-2.639,0.178001   s-1.778999,0.366001-2.549,0.741001c-0.771,0.376999-1.414,0.889-1.927,1.542c-0.514,0.652-0.771,1.512001-0.771,2.578999   c0,1.977001,0.632,3.349998,1.896999,4.120998C32.851002,62.108002,34.570999,62.493999,36.744999,62.493999z"/>
	<path fill="#05ABD6" d="M60.818001,62.493999c2.252998,0,3.922997-0.297001,5.010002-0.889   c1.086998-0.592999,1.630997-1.542,1.630997-2.846001c0-1.342999-0.533997-2.410999-1.600998-3.202   c-1.067001-0.790001-2.827-1.68-5.277-2.667999c-1.186001-0.473999-2.322998-0.958-3.409-1.452   C56.084,50.943001,55.146,50.360001,54.356003,49.688c-0.791-0.672001-1.423-1.481998-1.897999-2.431   c-0.473999-0.949001-0.710999-2.113998-0.710999-3.498001c0-2.728001,1.007999-4.892002,3.023998-6.493   c2.015999-1.601002,4.763-2.402,8.242001-2.402c0.868999,0,1.739002,0.049999,2.608997,0.148998   c0.869003,0.098999,1.68,0.217999,2.431,0.355c0.75,0.139,1.413002,0.287998,1.986,0.445   c0.572998,0.159,1.016998,0.296001,1.334,0.415001l-1.008003,4.743c-0.593002-0.316002-1.522003-0.641998-2.787003-0.978001   c-1.264999-0.334999-2.787003-0.504002-4.566002-0.504002c-1.542,0-2.886002,0.306999-4.032001,0.918999   c-1.146999,0.612999-1.720001,1.570999-1.720001,2.875999c0,0.673,0.127998,1.264999,0.384998,1.778999   s0.652,0.978001,1.186001,1.393002c0.533001,0.415001,1.195,0.799999,1.986,1.155998   c0.790001,0.355,1.738998,0.731998,2.846001,1.125999c1.462002,0.554001,2.766003,1.097,3.912998,1.631001   c1.146004,0.533001,2.124001,1.155998,2.934998,1.868c0.809998,0.710999,1.431999,1.570999,1.867996,2.578999   c0.434998,1.007999,0.652,2.243999,0.652,3.706001c0,2.846001-1.057999,5.001999-3.171997,6.463001   c-2.114998,1.462997-5.128998,2.194-9.042,2.194c-2.728001,0-4.862-0.227997-6.403999-0.681999   s-2.589001-0.800003-3.143002-1.037003l1.007999-4.743c0.632,0.237,1.639999,0.592999,3.023998,1.067001   C56.687,62.256001,58.525002,62.493999,60.818001,62.493999z"/>
	<path fill="#05ABD6" d="M87.617996,49.507999c1.185997,0.91,2.440002,2.035999,3.764999,3.380001   c1.323997,1.344002,2.627998,2.797001,3.913002,4.358002c1.283997,1.562,2.5,3.143002,3.647003,4.743999   c1.146004,1.601002,2.113998,3.092999,2.904999,4.476002h-6.462997C94.555,65.083,93.596001,63.670002,92.509003,62.227005   c-1.087997-1.442001-2.223-2.826-3.410004-4.151001c-1.185997-1.324001-2.391998-2.540001-3.616997-3.646999   c-1.225998-1.105999-2.391998-2.035999-3.498001-2.786999v14.822998h-5.514V21.403l5.514-0.948999v28.104998   c0.948997-0.948002,1.996002-1.995998,3.142998-3.143002c1.146004-1.146,2.273003-2.312,3.379997-3.498001   c1.106003-1.186001,2.153999-2.321999,3.142998-3.41c0.987999-1.085999,1.837997-2.044998,2.550003-2.875999h6.462997   c-0.910004,0.987999-1.897003,2.075001-2.964996,3.261002c-1.067001,1.186001-2.175003,2.382-3.32,3.588001   C93.230995,43.687,92.074997,44.891998,90.908997,46.098C89.742996,47.305,88.646004,48.441002,87.617996,49.507999z"/>
	<path fill="#1C437D" d="M130.723999,65.458c-0.791,0.237-1.699997,0.464996-2.726997,0.681999   c-1.028,0.217003-2.105003,0.404999-3.232002,0.563004c-1.126999,0.157997-2.274002,0.286003-3.439003,0.385002   c-1.166,0.098-2.282997,0.149002-3.349998,0.149002c-2.57,0-4.862-0.375999-6.877998-1.126999   c-2.015999-0.75-3.716003-1.828003-5.098999-3.230999c-1.384003-1.403-2.441002-3.103001-3.171997-5.098999   c-0.732002-1.995998-1.097-4.238998-1.097-6.73c0-2.529999,0.316002-4.812,0.948997-6.848999   c0.632004-2.035,1.542-3.764999,2.726997-5.188c1.185997-1.423,2.639-2.509998,4.359001-3.261002   c1.719002-0.75,3.684998-1.125999,5.899002-1.125999c1.224998,0,2.321999,0.118,3.291,0.355999   c0.968002,0.237,1.945999,0.573002,2.934998,1.007999V21.878l8.834-1.423V65.458z M110.741997,50.634998   c0,2.728001,0.612,4.921001,1.837997,6.582001c1.224998,1.66,3.043999,2.490002,5.455002,2.490002   c0.790001,0,1.522003-0.028999,2.194-0.088001c0.670998-0.060001,1.224998-0.127998,1.660004-0.208v-16.069   c-0.554001-0.355-1.275002-0.652-2.164001-0.889s-1.789001-0.355-2.697998-0.355   C112.836998,42.097,110.741997,44.943001,110.741997,50.634998z"/>
	<path fill="#1C437D" d="M146.613998,34.448002c2.608994,0,4.781998,0.296001,6.522003,0.889   c1.738998,0.592999,3.132996,1.443001,4.179993,2.549999s1.787994,2.451,2.223999,4.032001   c0.434006,1.581001,0.651993,3.341,0.651993,5.277v18.381001c-1.266006,0.277-3.024002,0.602997-5.276993,0.977997   c-2.253006,0.375-4.981003,0.563004-8.182007,0.563004c-2.016006,0-3.845001-0.178001-5.485001-0.533997   c-1.639999-0.355003-3.054001-0.938004-4.238998-1.749001c-1.186005-0.808998-2.095001-1.867001-2.727005-3.172001   c-0.632996-1.304001-0.949005-2.904999-0.949005-4.801998c0-1.818001,0.365005-3.360001,1.097-4.625   c0.731003-1.264999,1.709-2.272999,2.934998-3.023998c1.225006-0.75,2.628006-1.293999,4.210007-1.631001   c1.580002-0.334999,3.220993-0.504002,4.921005-0.504002c1.145996,0,2.164001,0.049999,3.054001,0.148998   c0.889008,0.098999,1.610001,0.228001,2.164001,0.384998v-0.830002c0-1.501999-0.455002-2.707001-1.363998-3.617001   c-0.910004-0.909-2.490997-1.363998-4.742996-1.363998c-1.503006,0-2.985001,0.109001-4.447998,0.326   s-2.727005,0.525002-3.794006,0.918999L136.238983,35.93c0.513-0.157001,1.156006-0.326,1.927002-0.504002   s1.610001-0.334999,2.520004-0.473999c0.908997-0.138,1.867996-0.256001,2.876007-0.355   C144.567993,34.498001,145.585999,34.448002,146.613998,34.448002z M147.326004,60.299   c0.869003,0,1.699005-0.019001,2.490005-0.058998c0.789993-0.039001,1.423004-0.098,1.897995-0.178001V53.362   c-0.356003-0.078999-0.889008-0.157001-1.600998-0.237c-0.710999-0.078999-1.363998-0.118999-1.957001-0.118999   c-0.830002,0-1.610992,0.049999-2.341995,0.148998c-0.731995,0.098999-1.373993,0.286999-1.927002,0.563   c-0.554001,0.277-0.988007,0.652-1.304001,1.125999c-0.317001,0.473999-0.473999,1.067001-0.473999,1.778999   c0,1.383999,0.464005,2.341999,1.393005,2.875999C144.429001,60.033001,145.703995,60.299,147.326004,60.299z"/>
	<path fill="#1C437D" d="M164.283005,27.511l8.835007-1.423v9.191h10.613007v7.352001h-10.613007v10.968998   c0,1.859001,0.326004,3.341,0.977997,4.447998s1.966003,1.66,3.942993,1.66c0.947998,0,1.927002-0.088001,2.934998-0.265999   c1.007996-0.178001,1.927002-0.424,2.757004-0.741001l1.244995,6.877998c-1.067001,0.435997-2.253006,0.809998-3.557999,1.125999   c-1.304001,0.316002-2.906006,0.473999-4.802994,0.473999c-2.410995,0-4.408005-0.325996-5.988998-0.977997   s-2.845993-1.560997-3.794006-2.727001c-0.949005-1.166-1.610992-2.579998-1.985992-4.240002   c-0.376007-1.66-0.563004-3.499001-0.563004-5.514V27.511z"/>
	<path fill="#1C437D" d="M199.119995,34.448002c2.608994,0,4.781998,0.296001,6.522003,0.889   c1.738998,0.592999,3.132996,1.443001,4.179993,2.549999s1.787994,2.451,2.223999,4.032001   c0.434006,1.581001,0.651993,3.341,0.651993,5.277v18.381001c-1.266006,0.277-3.024002,0.602997-5.276993,0.977997   c-2.253006,0.375-4.981003,0.563004-8.182007,0.563004c-2.016006,0-3.845001-0.178001-5.485001-0.533997   c-1.639999-0.355003-3.054001-0.938004-4.240005-1.749001c-1.186005-0.808998-2.095001-1.867001-2.727005-3.172001   c-0.632996-1.304001-0.949005-2.904999-0.949005-4.801998c0-1.818001,0.365005-3.360001,1.097-4.625   c0.731003-1.264999,1.709-2.272999,2.934998-3.023998c1.225006-0.75,2.628006-1.293999,4.210007-1.631001   c1.580002-0.334999,3.220993-0.504002,4.921005-0.504002c1.145996,0,2.164001,0.049999,3.054001,0.148998   c0.889008,0.098999,1.610001,0.228001,2.164001,0.384998v-0.830002c0-1.501999-0.455002-2.707001-1.363998-3.617001   c-0.910004-0.909-2.490997-1.363998-4.742996-1.363998c-1.503006,0-2.985001,0.109001-4.447998,0.326   s-2.727005,0.525002-3.794006,0.918999L188.743973,35.93c0.513-0.157001,1.156006-0.326,1.927002-0.504002   s1.610001-0.334999,2.520004-0.473999c0.908997-0.138,1.867996-0.256001,2.876007-0.355   C197.074005,34.498001,198.091995,34.448002,199.119995,34.448002z M199.830994,60.299   c0.869003,0,1.699005-0.019001,2.490005-0.058998c0.789993-0.039001,1.423004-0.098,1.897995-0.178001V53.362   c-0.356003-0.078999-0.889008-0.157001-1.600998-0.237c-0.710999-0.078999-1.363998-0.118999-1.957001-0.118999   c-0.830002,0-1.610992,0.049999-2.341995,0.148998c-0.731995,0.098999-1.373993,0.286999-1.927002,0.563   c-0.554001,0.277-0.988007,0.652-1.304001,1.125999c-0.317001,0.473999-0.473999,1.067001-0.473999,1.778999   c0,1.383999,0.464005,2.341999,1.393005,2.875999C196.934998,60.033001,198.210007,60.299,199.830994,60.299z"/>
</g>
<g>
	<g>
		<path fill="#3B3C3E" d="M9.982422,88.25H9.097656v-3.375l-3.157715-6.016602h0.952637l2.150879,4.165039    c0.163086,0.326172,0.312988,0.680664,0.449219,1.007813h0.095215c0.135742-0.327148,0.299316-0.681641,0.44873-0.994141    l2.150879-4.178711h0.938965l-3.144043,6.030273V88.25z"/>
		<path fill="#3B3C3E" d="M20.017578,84.956055c0,2.532227-0.803223,3.457031-3.021484,3.457031    c-2.21875,0-3.035645-0.924805-3.035645-3.457031c0-2.53125,0.816895-3.470703,3.035645-3.470703    C19.214355,81.485352,20.017578,82.424805,20.017578,84.956055z M14.872559,84.956055    c0,2.083008,0.530762,2.72168,2.123535,2.72168c1.592285,0,2.123047-0.638672,2.123047-2.72168    s-0.530762-2.72168-2.123047-2.72168C15.40332,82.234375,14.872559,82.873047,14.872559,84.956055z"/>
		<path fill="#3B3C3E" d="M28.065918,88.25h-0.680664l-0.067871-1.03418c-1.020996,0.802734-1.959961,1.197266-2.92627,1.197266    c-1.170898,0-1.783203-0.612305-1.783203-1.795898v-4.955078h0.857422v4.722656c0,0.912109,0.354004,1.279297,1.211426,1.279297    c0.789551,0,1.483398-0.380859,2.531738-1.087891v-4.914063h0.857422V88.25z"/>
		<path fill="#3B3C3E" d="M35.666504,81.458008c0,0.476563-0.026855,0.925781-0.095215,1.280273    c1.04834-0.776367,2.041504-1.25293,3.035156-1.25293c1.157227,0,1.783203,0.625977,1.783203,1.810547V88.25h-0.871094v-4.722656    c0-0.939453-0.340332-1.292969-1.143066-1.292969c-0.844238,0-1.606445,0.394531-2.73584,1.142578V88.25h-0.85791v-9.527344    h0.884766V81.458008z"/>
		<path fill="#3B3C3E" d="M43.211426,81.785156c0.898438-0.136719,2.055664-0.299805,3.171387-0.299805    c1.347656,0,2.109863,0.516602,2.109863,2.02832V88.25h-0.680664l-0.108887-1.15625    c-0.544434,0.543945-1.660645,1.265625-2.885254,1.265625c-1.143555,0-1.878418-0.626953-1.878418-1.783203v-0.762695    c0-1.020508,0.625977-1.606445,1.728516-1.606445h2.953613v-0.693359c0-0.830078-0.312988-1.279297-1.401855-1.279297    c-0.789551,0-1.919434,0.081055-2.92627,0.19043L43.211426,81.785156z M43.810547,86.494141    c0,0.748047,0.380859,1.102539,1.156738,1.102539c0.775879,0.013672,1.878418-0.408203,2.654297-1.116211v-1.578125h-2.817383    c-0.694336,0.026367-0.993652,0.380859-0.993652,1.019531V86.494141z"/>
		<path fill="#3B3C3E" d="M54.526855,88.032227C54.472168,88.167969,54.363281,88.25,54.200195,88.25h-0.803223    c-0.149414,0-0.271973-0.082031-0.32666-0.217773l-2.518066-6.370117h0.925781l1.796387,4.763672    c0.149902,0.380859,0.286133,0.790039,0.435547,1.18457h0.177246l0.449219-1.198242l1.796387-4.75h0.912109L54.526855,88.032227z"/>
		<path fill="#3B3C3E" d="M59.661621,85.37793c0.108887,1.796875,0.775879,2.286133,2.286621,2.286133    c0.775879,0,1.646973-0.081055,2.272949-0.162109l0.095703,0.584961c-0.558105,0.217773-1.742188,0.326172-2.491211,0.326172    c-2.20459,0-3.0625-0.952148-3.0625-3.484375c0-2.572266,0.85791-3.443359,2.953613-3.443359    c1.89209,0,2.73584,0.694336,2.749512,2.055664c0.013672,1.183594-0.435547,1.836914-1.510742,1.836914H59.661621z     M62.751465,84.697266c0.680664,0,0.857422-0.490234,0.84375-1.142578c-0.013672-0.925781-0.558105-1.320313-1.837402-1.320313    c-1.538086,0-2.068848,0.598633-2.096191,2.462891H62.751465z"/>
		<path fill="#3B3C3E" d="M75.456543,87.228516c-0.789063,0.695313-1.660156,1.18457-2.640137,1.18457    c-1.70166,0-2.35498-1.102539-2.35498-3.470703c0-2.544922,0.762207-3.457031,2.463867-3.457031    c0.84375,0,1.673828,0.217773,2.490723,0.639648c-0.054688-0.449219-0.054688-0.816406-0.054688-1.292969v-2.109375h0.85791V88.25    h-0.666992L75.456543,87.228516z M75.361328,82.724609c-0.884277-0.299805-1.510742-0.476563-2.259277-0.476563    c-1.265625,0-1.742188,0.612305-1.742188,2.680664c0,2.083008,0.476563,2.722656,1.701172,2.722656    c0.775879,0,1.333984-0.313477,2.300293-1.047852V82.724609z"/>
		<path fill="#3B3C3E" d="M79.094727,81.785156c0.898438-0.136719,2.055176-0.299805,3.171387-0.299805    c1.347656,0,2.109863,0.516602,2.109863,2.02832V88.25h-0.680664l-0.108887-1.15625    c-0.544434,0.543945-1.660645,1.265625-2.885254,1.265625c-1.143555,0-1.878418-0.626953-1.878418-1.783203v-0.762695    c0-1.020508,0.625977-1.606445,1.728516-1.606445h2.953613v-0.693359c0-0.830078-0.312988-1.279297-1.401855-1.279297    c-0.789551,0-1.919434,0.081055-2.92627,0.19043L79.094727,81.785156z M79.693848,86.494141    c0,0.748047,0.380859,1.102539,1.156738,1.102539c0.775879,0.013672,1.878418-0.408203,2.654297-1.116211v-1.578125H80.6875    c-0.694336,0.026367-0.993652,0.380859-0.993652,1.019531V86.494141z"/>
		<path fill="#3B3C3E" d="M90.736816,88.222656c-0.408203,0.082031-1.088867,0.136719-1.375,0.136719    c-1.088867,0-1.633301-0.585938-1.633301-1.647461v-4.369141h-1.197754v-0.612305l1.197754-0.068359v-2h0.85791v2h2.231934    v0.680664h-2.231934v4.274414c0,0.666016,0.312988,0.952148,0.966309,0.952148h1.075195L90.736816,88.222656z"/>
		<path fill="#3B3C3E" d="M92.876465,81.785156c0.898438-0.136719,2.055664-0.299805,3.171387-0.299805    c1.347656,0,2.109863,0.516602,2.109863,2.02832V88.25h-0.680664l-0.108887-1.15625    c-0.544434,0.543945-1.660645,1.265625-2.885254,1.265625c-1.143555,0-1.878418-0.626953-1.878418-1.783203v-0.762695    c0-1.020508,0.625977-1.606445,1.728516-1.606445h2.953613v-0.693359c0-0.830078-0.312988-1.279297-1.401855-1.279297    c-0.789551,0-1.919434,0.081055-2.92627,0.19043L92.876465,81.785156z M93.475586,86.494141    c0,0.748047,0.380859,1.102539,1.156738,1.102539c0.775879,0.013672,1.878418-0.408203,2.654297-1.116211v-1.578125h-2.817383    c-0.694336,0.026367-0.993652,0.380859-0.993652,1.019531V86.494141z"/>
		<path fill="#3B3C3E" d="M104.710449,85.160156v-0.679688h4.178711v0.679688H104.710449z"/>
		<path fill="#3B3C3E" d="M122.805664,87.991211c-0.054688,0.163086-0.176758,0.258789-0.354492,0.258789h-0.802734    c-0.176758,0-0.313477-0.109375-0.353516-0.285156l-1.306641-4.723633c-0.095703-0.34082-0.164063-0.680664-0.258789-1.020508    h-0.149414l-0.259277,1.020508l-1.292969,4.723633c-0.041016,0.175781-0.19043,0.285156-0.367676,0.285156h-0.789551    c-0.176758,0-0.312988-0.095703-0.353516-0.258789l-2.055664-6.329102h0.898438l1.551758,5.049805    c0.095215,0.313477,0.176758,0.639648,0.258789,0.952148h0.176758l0.258789-0.952148l1.320313-4.777344    c0.040527-0.163086,0.163086-0.272461,0.339844-0.272461h0.789551c0.177734,0,0.299805,0.109375,0.34082,0.286133    l1.320313,4.763672l0.245117,0.952148h0.19043c0.081055-0.326172,0.149414-0.625,0.245117-0.952148l1.564453-5.049805h0.898438    L122.805664,87.991211z"/>
		<path fill="#3B3C3E" d="M127.602539,85.37793c0.108398,1.796875,0.775391,2.286133,2.286133,2.286133    c0.776367,0,1.647461-0.081055,2.273438-0.162109l0.095703,0.584961c-0.558594,0.217773-1.742188,0.326172-2.491211,0.326172    c-2.205078,0-3.0625-0.952148-3.0625-3.484375c0-2.572266,0.857422-3.443359,2.953125-3.443359    c1.892578,0,2.736328,0.694336,2.75,2.055664c0.013672,1.183594-0.435547,1.836914-1.510742,1.836914H127.602539z     M130.692383,84.697266c0.680664,0,0.857422-0.490234,0.84375-1.142578c-0.013672-0.925781-0.558594-1.320313-1.837891-1.320313    c-1.538086,0-2.068359,0.598633-2.095703,2.462891H130.692383z"/>
		<path fill="#3B3C3E" d="M139.599609,81.458008c0,0.476563-0.027344,0.925781-0.095703,1.280273    c1.048828-0.776367,2.041992-1.25293,3.035156-1.25293c1.157227,0,1.783203,0.625977,1.783203,1.810547V88.25h-0.871094v-4.722656    c0-0.939453-0.339844-1.292969-1.142578-1.292969c-0.844727,0-1.606445,0.394531-2.736328,1.142578V88.25h-0.857422v-9.527344    h0.884766V81.458008z"/>
		<path fill="#3B3C3E" d="M147.144531,81.785156c0.898438-0.136719,2.055664-0.299805,3.170898-0.299805    c1.347656,0,2.110352,0.516602,2.110352,2.02832V88.25h-0.680664l-0.109375-1.15625    c-0.543945,0.543945-1.660156,1.265625-2.884766,1.265625c-1.143555,0-1.878906-0.626953-1.878906-1.783203v-0.762695    c0-1.020508,0.625977-1.606445,1.728516-1.606445h2.954102v-0.693359c0-0.830078-0.313477-1.279297-1.402344-1.279297    c-0.789063,0-1.918945,0.081055-2.925781,0.19043L147.144531,81.785156z M147.743164,86.494141    c0,0.748047,0.380859,1.102539,1.157227,1.102539c0.775391,0.013672,1.87793-0.408203,2.654297-1.116211v-1.578125h-2.817383    c-0.694336,0.026367-0.994141,0.380859-0.994141,1.019531V86.494141z"/>
		<path fill="#3B3C3E" d="M158.459961,88.032227c-0.054688,0.135742-0.164063,0.217773-0.327148,0.217773h-0.802734    c-0.149414,0-0.272461-0.082031-0.327148-0.217773l-2.517578-6.370117h0.925781l1.795898,4.763672    c0.150391,0.380859,0.286133,0.790039,0.435547,1.18457h0.177734l0.449219-1.198242l1.795898-4.75h0.912109L158.459961,88.032227z    "/>
		<path fill="#3B3C3E" d="M163.594727,85.37793c0.108398,1.796875,0.775391,2.286133,2.286133,2.286133    c0.776367,0,1.647461-0.081055,2.273438-0.162109L168.25,88.086914c-0.558594,0.217773-1.742188,0.326172-2.491211,0.326172    c-2.205078,0-3.0625-0.952148-3.0625-3.484375c0-2.572266,0.857422-3.443359,2.953125-3.443359    c1.892578,0,2.736328,0.694336,2.75,2.055664c0.013672,1.183594-0.435547,1.836914-1.510742,1.836914H163.594727z     M166.68457,84.697266c0.680664,0,0.857422-0.490234,0.84375-1.142578c-0.013672-0.925781-0.558594-1.320313-1.837891-1.320313    c-1.538086,0-2.068359,0.598633-2.095703,2.462891H166.68457z"/>
		<path fill="#3B3C3E" d="M175.769531,85.078125c-1.007813-0.203125-1.469727-0.693359-1.469727-1.795898    c0-1.579102,0.802734-1.810547,2.53125-1.796875c0.830078,0.013672,1.87793,0.081055,2.695313,0.204102l-0.082031,0.625977    c-0.816406-0.040039-1.6875-0.081055-2.504883-0.081055c-1.306641-0.013672-1.795898,0.013672-1.795898,1.047852    c0,0.789063,0.353516,0.96582,1.006836,1.102539l2.02832,0.380859c1.020508,0.204102,1.524414,0.666992,1.524414,1.769531    c0,1.632813-0.912109,1.865234-2.736328,1.865234c-0.543945,0-1.442383-0.013672-2.517578-0.177734l0.068359-0.639648    c0.720703,0.068359,1.442383,0.094727,2.299805,0.081055c1.538086-0.012695,2.041992-0.162109,2.041992-1.128906    c0-0.775391-0.435547-0.953125-1.075195-1.075195L175.769531,85.078125z"/>
		<path fill="#3B3C3E" d="M187.981445,84.956055c0,2.532227-0.802734,3.457031-3.021484,3.457031    c-2.217773,0-3.035156-0.924805-3.035156-3.457031c0-2.53125,0.817383-3.470703,3.035156-3.470703    C187.178711,81.485352,187.981445,82.424805,187.981445,84.956055z M182.836914,84.956055    c0,2.083008,0.53125,2.72168,2.123047,2.72168c1.592773,0,2.124023-0.638672,2.124023-2.72168s-0.53125-2.72168-2.124023-2.72168    C183.368164,82.234375,182.836914,82.873047,182.836914,84.956055z"/>
		<path fill="#3B3C3E" d="M191.484375,86.617188c0,0.625,0.339844,0.952148,0.96582,0.952148h0.694336l0.095703,0.65332    c-0.217773,0.082031-0.790039,0.136719-1.088867,0.136719c-0.925781,0-1.524414-0.558594-1.524414-1.579102v-8.057617h0.857422    V86.617188z"/>
		<path fill="#3B3C3E" d="M200.606445,88.25h-0.680664l-0.068359-1.03418c-1.020508,0.802734-1.959961,1.197266-2.925781,1.197266    c-1.170898,0-1.783203-0.612305-1.783203-1.795898v-4.955078h0.857422v4.722656c0,0.912109,0.353516,1.279297,1.210938,1.279297    c0.790039,0,1.484375-0.380859,2.532227-1.087891v-4.914063h0.857422V88.25z"/>
		<path fill="#3B3C3E" d="M207.03418,88.222656c-0.408203,0.082031-1.088867,0.136719-1.375,0.136719    c-1.088867,0-1.632813-0.585938-1.632813-1.647461v-4.369141h-1.198242v-0.612305l1.198242-0.068359v-2h0.857422v2h2.231445    v0.680664h-2.231445v4.274414c0,0.666016,0.3125,0.952148,0.96582,0.952148h1.075195L207.03418,88.222656z"/>
		<path fill="#3B3C3E" d="M209.950195,78.885742c0.19043,0,0.285156,0.094727,0.285156,0.286133v0.789063    c0,0.19043-0.094727,0.286133-0.285156,0.286133h-0.395508c-0.204102,0-0.285156-0.095703-0.285156-0.286133v-0.789063    c0-0.191406,0.081055-0.286133,0.285156-0.286133H209.950195z M209.324219,88.25v-6.587891h0.857422V88.25H209.324219z"/>
		<path fill="#3B3C3E" d="M218.907227,84.956055c0,2.532227-0.802734,3.457031-3.021484,3.457031    c-2.217773,0-3.035156-0.924805-3.035156-3.457031c0-2.53125,0.817383-3.470703,3.035156-3.470703    C218.104492,81.485352,218.907227,82.424805,218.907227,84.956055z M213.762695,84.956055    c0,2.083008,0.53125,2.72168,2.123047,2.72168c1.592773,0,2.124023-0.638672,2.124023-2.72168s-0.53125-2.72168-2.124023-2.72168    C214.293945,82.234375,213.762695,82.873047,213.762695,84.956055z"/>
		<path fill="#3B3C3E" d="M222.328125,82.750977c1.047852-0.802734,2.041992-1.265625,3.048828-1.265625    c1.157227,0,1.769531,0.625977,1.769531,1.810547V88.25h-0.857422v-4.722656c0-0.939453-0.339844-1.292969-1.143555-1.292969    c-0.857422,0-1.619141,0.408203-2.735352,1.142578V88.25h-0.871094v-6.587891h0.720703L222.328125,82.750977z"/>
		<path fill="#3B3C3E" d="M231.125977,85.078125c-1.006836-0.203125-1.469727-0.693359-1.469727-1.795898    c0-1.579102,0.802734-1.810547,2.53125-1.796875c0.830078,0.013672,1.87793,0.081055,2.695313,0.204102l-0.082031,0.625977    c-0.816406-0.040039-1.6875-0.081055-2.503906-0.081055C230.990234,82.220703,230.5,82.248047,230.5,83.282227    c0,0.789063,0.353516,0.96582,1.006836,1.102539l2.02832,0.380859c1.020508,0.204102,1.524414,0.666992,1.524414,1.769531    c0,1.632813-0.912109,1.865234-2.736328,1.865234c-0.543945,0-1.442383-0.013672-2.517578-0.177734l0.068359-0.639648    c0.720703,0.068359,1.442383,0.094727,2.299805,0.081055c1.538086-0.012695,2.041992-0.162109,2.041992-1.128906    c0-0.775391-0.435547-0.953125-1.075195-1.075195L231.125977,85.078125z"/>
	</g>
</g>
</svg>